<svg width="254" height="254" viewBox="0 0 254 254" fill="none" xmlns="http://www.w3.org/2000/svg">
<rect width="254" height="254" fill="#18181B"/>
<path d="M172.325 179.5C193.325 179.5 198.575 167.687 198.575 153.25V100.75C198.575 86.3125 193.325 74.5 172.325 74.5C151.325 74.5 146.075 86.3125 146.075 100.75V153.25C146.075 167.687 151.325 179.5 172.325 179.5Z" stroke="white" stroke-width="6" stroke-linecap="round" stroke-linejoin="round"/>
<path d="M81.675 179.5C60.675 179.5 55.425 167.687 55.425 153.25V100.75C55.425 86.3125 60.675 74.5 81.675 74.5C102.675 74.5 107.925 86.3125 107.925 100.75V153.25C107.925 167.687 102.675 179.5 81.675 179.5Z" stroke="white" stroke-width="6" stroke-linecap="round" stroke-linejoin="round"/>
<path d="M107.925 127H146.075" stroke="white" stroke-width="6" stroke-linecap="round" stroke-linejoin="round"/>
<path d="M218.875 148.875V105.125" stroke="white" stroke-width="6" stroke-linecap="round" stroke-linejoin="round"/>
<path d="M35.125 148.875V105.125" stroke="white" stroke-width="6" stroke-linecap="round" stroke-linejoin="round"/>
</svg>
